<?xml version="1.0" encoding="UTF-8" standalone="no"?>
<svg
   width="150"
   height="73"
   viewBox="0 0 150 73"
   version="1.1"
   id="svg6694"
   sodipodi:docname="linear.svg"
   inkscape:version="1.2 (dc2aeda, 2022-05-15)"
   xmlns:inkscape="http://www.inkscape.org/namespaces/inkscape"
   xmlns:sodipodi="http://sodipodi.sourceforge.net/DTD/sodipodi-0.dtd"
   xmlns="http://www.w3.org/2000/svg"
   xmlns:svg="http://www.w3.org/2000/svg">
  <sodipodi:namedview
     id="namedview6696"
     pagecolor="#ffffff"
     bordercolor="#000000"
     borderopacity="0.25"
     inkscape:showpageshadow="2"
     inkscape:pageopacity="0.0"
     inkscape:pagecheckerboard="0"
     inkscape:deskcolor="#d1d1d1"
     showgrid="false"
     inkscape:zoom="3.2328767"
     inkscape:cx="75.319916"
     inkscape:cy="36.654661"
     inkscape:window-width="1440"
     inkscape:window-height="847"
     inkscape:window-x="0"
     inkscape:window-y="205"
     inkscape:window-maximized="1"
     inkscape:current-layer="svg6694" />
  <defs
     id="defs6646">
    <clipPath
       id="a">
      <rect
         width="150"
         height="73"
         fill="none"
         id="rect6638" />
    </clipPath>
    <linearGradient
       id="b"
       x1="0.5"
       x2="0.5"
       y2="1"
       gradientUnits="objectBoundingBox">
      <stop
         offset="0"
         stop-color="#56af4b"
         id="stop6641" />
      <stop
         offset="1"
         stop-color="#008200"
         id="stop6643" />
    </linearGradient>
  </defs>
  <rect
     width="150"
     height="73"
     fill="none"
     id="rect6648" />
  <g
     clip-path="url(#a)"
     id="g6692"
     style="fill:#000000;fill-opacity:1">
    <path
       d="M0,0V41.089c0,2.4,2.639,4.785,7.893,4.785h0V4.367A4.378,4.378,0,0,0,3.527,0H0Z"
       transform="translate(0.003 0.42)"
       fill="url(#b)"
       id="path6650"
       style="fill:#000000;fill-opacity:1" />
    <path
       d="M4.368,13.261H28.094V5.371H7.9C2.638,5.368,0,2.4,0,0V8.936a4.383,4.383,0,0,0,4.368,4.325"
       transform="translate(0 38.034)"
       fill="#56b04c"
       id="path6652"
       style="fill:#000000;fill-opacity:1" />
    <path
       d="M19.236,8.538V1.674a15.639,15.639,0,0,0-3.764-.428A17.217,17.217,0,0,0,7.9,3.088,4.387,4.387,0,0,0,3.724,0H0V32.7H4.359A3.542,3.542,0,0,0,7.9,29.158V9.626A14.756,14.756,0,0,1,15.35,7.978a12.552,12.552,0,0,1,3.885.561"
       transform="translate(130.479 18.598)"
       fill="#56b04c"
       id="path6654"
       style="fill:#000000;fill-opacity:1" />
    <path
       d="M1.2,7.136a3.158,3.158,0,0,0,.591-1.031L.7,0C.472.274.255.519.033.755A12.918,12.918,0,0,0,1.2,7.136"
       transform="translate(101.101 38.894)"
       fill="#56b04c"
       id="path6656"
       style="fill:#000000;fill-opacity:1" />
    <path
       d="M14.546,32.606C4.758,32.606,0,27.273,0,16.3S4.656,0,14.235,0C25.763,0,27.352,7.6,27.352,15.822c0,1.074-.068,2.134-.122,2.987l-.03.439-.45,0H7.978a6.968,6.968,0,0,0,1.53,4.583c1.214,1.334,3.206,1.982,6.089,1.982a24.56,24.56,0,0,0,9.666-1.777l.67-.28a7.231,7.231,0,0,0,.959-.494,9.946,9.946,0,0,0,1.93,5.853,17.281,17.281,0,0,1-2.889,1.463l-.3.122A30.216,30.216,0,0,1,14.546,32.606ZM14.235,6.793a5.7,5.7,0,0,0-4.5,1.595c-1,1.09-1.557,2.747-1.747,5.215h11.4c-.012-2.137-.161-3.8-.851-4.954C17.786,7.383,16.417,6.793,14.235,6.793Z"
       transform="translate(71.4 18.708)"
       fill="#56b04c"
       id="path6658"
       style="fill:#000000;fill-opacity:1" />
    <path
       d="M10.917,32.706C4.183,32.706,0,28.676,0,22.188a8.731,8.731,0,0,1,3.034-7.052c2-1.673,4.989-2.676,8.883-2.98l6.5-.506V10.56c0-2.537-.865-3.825-5.594-3.825A26.068,26.068,0,0,0,3.335,8.366l-.653.253V1.762l.288-.123A29.5,29.5,0,0,1,13.319,0c11.451,0,13,5.677,13,11.231v21.46H22.78A4.415,4.415,0,0,1,18.621,29.6,12.088,12.088,0,0,1,10.917,32.706Zm7.5-15.682-5.978.67c-3.216.378-4.469,1.554-4.469,4.193a3.811,3.811,0,0,0,1.064,2.985,4.638,4.638,0,0,0,3.233.961,8.473,8.473,0,0,0,6.15-2.776V17.024Z"
       transform="translate(101.006 18.659)"
       fill="#56b04c"
       id="path6660"
       style="fill:#000000;fill-opacity:1" />
    <path
       d="M15.4,1.246A17.429,17.429,0,0,0,7.707,3.088,4.388,4.388,0,0,0,3.531,0H0V32.7H7.9V9.629a13.08,13.08,0,0,1,6.352-1.513c2.933,0,4.187,1.166,4.187,3.885V29.158A3.535,3.535,0,0,0,21.976,32.7h4.359V11.4c0-6.734-3.68-10.15-10.937-10.15"
       transform="translate(42.295 18.598)"
       fill="#56b04c"
       id="path6662"
       style="fill:#000000;fill-opacity:1" />
    <path
       d="M7.9,32.687V0H0V28.322a4.376,4.376,0,0,0,4.368,4.364Z"
       transform="translate(31.244 18.608)"
       fill="#56b04c"
       id="path6664"
       style="fill:#000000;fill-opacity:1" />
    <path
       d="M4.97,9.945A4.972,4.972,0,1,0,0,4.975a4.975,4.975,0,0,0,4.97,4.97"
       transform="translate(30.223 6.039)"
       fill="#56b04c"
       id="path6666"
       style="fill:#000000;fill-opacity:1" />
    <path
       d="M0,6.342C0,2.474,1.344,0,5.047,0A8.115,8.115,0,0,1,8.57.639v1.8a8.126,8.126,0,0,0-3.293-.721c-2.524,0-3.392,1.7-3.392,4.621,0,3.016.9,4.621,3.392,4.621a5.645,5.645,0,0,0,1.753-.229V7.374H4.851V5.719H8.866V11.93A9.146,9.146,0,0,1,5,12.684c-3.655,0-5-2.474-5-6.342"
       transform="translate(26.461 55.608)"
       fill="#002e50"
       id="path6668"
       style="fill:#000000;fill-opacity:1" />
    <path
       d="M4.834,1.672a3.187,3.187,0,0,0-.9-.1,4.009,4.009,0,0,0-2.1.492V8.39H0V.2H1.082l.3.656A4.148,4.148,0,0,1,3.966,0a4.1,4.1,0,0,1,.868.1Z"
       transform="translate(37.063 59.704)"
       fill="#002e50"
       id="path6670"
       style="fill:#000000;fill-opacity:1" />
    <path
       d="M1.835,0V5.621c0,.836.426,1.213,1.295,1.213a3.72,3.72,0,0,0,1.884-.475V0H6.85V8.194H5.768l-.295-.655a4.719,4.719,0,0,1-2.655.852C.737,8.39,0,7.358,0,5.785V0Z"
       transform="translate(42.864 59.901)"
       fill="#002e50"
       id="path6672"
       style="fill:#000000;fill-opacity:1" />
    <path
       d="M1.835,12.487H0V.2H1.082l.294.656A4.314,4.314,0,0,1,4.031,0,2.864,2.864,0,0,1,6.567,1.139a5.435,5.435,0,0,1,.741,3.155,5.428,5.428,0,0,1-.741,3.148A2.861,2.861,0,0,1,4.031,8.587a4.186,4.186,0,0,1-2.2-.639v4.538Zm1.77-10.93a3.462,3.462,0,0,0-1.77.475V6.555a3.461,3.461,0,0,0,1.77.475c1.536,0,1.851-1.094,1.851-2.736S5.142,1.557,3.605,1.557Z"
       transform="translate(51.385 59.704)"
       fill="#002e50"
       id="path6674"
       style="fill:#000000;fill-opacity:1" />
    <path
       d="M1.835,12.487H0V.2H1.082l.294.656A4.314,4.314,0,0,1,4.031,0,2.864,2.864,0,0,1,6.567,1.139a5.436,5.436,0,0,1,.741,3.155,5.43,5.43,0,0,1-.741,3.148A2.862,2.862,0,0,1,4.031,8.587a4.186,4.186,0,0,1-2.2-.639v4.538Zm1.77-10.93a3.5,3.5,0,0,0-1.77.475V6.555a3.5,3.5,0,0,0,1.77.475c1.536,0,1.851-1.094,1.851-2.736S5.142,1.557,3.605,1.557Z"
       transform="translate(60.135 59.704)"
       fill="#002e50"
       id="path6676"
       style="fill:#000000;fill-opacity:1" />
    <path
       d="M3.638,8.587a3.316,3.316,0,0,1-2.913-1.2A5.2,5.2,0,0,1,0,4.294,5.206,5.206,0,0,1,.725,1.2,3.315,3.315,0,0,1,3.638,0,3.315,3.315,0,0,1,6.551,1.2a5.206,5.206,0,0,1,.725,3.094,5.2,5.2,0,0,1-.725,3.093A3.316,3.316,0,0,1,3.638,8.587Zm0-7.047c-1.51,0-1.786.927-1.786,2.754s.276,2.753,1.786,2.753S5.424,6.12,5.424,4.294,5.148,1.54,3.638,1.54Z"
       transform="translate(68.656 59.704)"
       fill="#002e50"
       id="path6678"
       style="fill:#000000;fill-opacity:1" />
    <path
       d="M0,8.423V0H1.835V8.259a2.3,2.3,0,0,0,2.622,2.557A2.3,2.3,0,0,0,7.079,8.259V0H8.915V8.423c0,3.441-2.786,4.064-4.458,4.064S0,11.864,0,8.423"
       transform="translate(80.536 55.804)"
       fill="#002e50"
       id="path6680"
       style="fill:#000000;fill-opacity:1" />
    <path
       d="M5.015,8.39V2.769c0-.835-.426-1.213-1.295-1.213a3.721,3.721,0,0,0-1.884.475V8.39H0V.2H1.082l.295.656A4.714,4.714,0,0,1,4.031,0C6.113,0,6.85,1.032,6.85,2.605V8.39Z"
       transform="translate(91.137 59.704)"
       fill="#002e50"
       id="path6682"
       style="fill:#000000;fill-opacity:1" />
    <path
       d="M2.441,11.93A1.886,1.886,0,0,1,.279,9.8V3.622H2.114V9.783c0,.466.174.623.688.623V11.9l-.01,0A2.2,2.2,0,0,1,2.441,11.93ZM1.2,2.392a1.2,1.2,0,1,1,1.2-1.2A1.2,1.2,0,0,1,1.2,2.392Z"
       transform="translate(99.478 56.28)"
       fill="#002e50"
       id="path6684"
       style="fill:#000000;fill-opacity:1" />
    <path
       d="M1.835,12.487H0V.2H1.082l.294.656A4.314,4.314,0,0,1,4.031,0,2.864,2.864,0,0,1,6.567,1.139a5.435,5.435,0,0,1,.741,3.155,5.428,5.428,0,0,1-.741,3.148A2.861,2.861,0,0,1,4.031,8.587a4.186,4.186,0,0,1-2.2-.639v4.538Zm1.77-10.93a3.462,3.462,0,0,0-1.77.475V6.555a3.461,3.461,0,0,0,1.77.475c1.536,0,1.851-1.094,1.851-2.736S5.142,1.557,3.605,1.557Z"
       transform="translate(103.673 59.704)"
       fill="#002e50"
       id="path6686"
       style="fill:#000000;fill-opacity:1" />
    <path
       d="M3.638,8.587a3.316,3.316,0,0,1-2.913-1.2A5.2,5.2,0,0,1,0,4.294,5.206,5.206,0,0,1,.725,1.2,3.315,3.315,0,0,1,3.638,0,3.315,3.315,0,0,1,6.551,1.2a5.206,5.206,0,0,1,.725,3.094,5.2,5.2,0,0,1-.725,3.093A3.316,3.316,0,0,1,3.638,8.587Zm0-7.047c-1.51,0-1.786.927-1.786,2.754s.276,2.753,1.786,2.753S5.424,6.12,5.424,4.294,5.148,1.54,3.638,1.54Z"
       transform="translate(112.194 59.704)"
       fill="#002e50"
       id="path6688"
       style="fill:#000000;fill-opacity:1" />
    <path
       d="M0,10.275V0H1.835V10.258c0,.459.164.622.689.622v1.492a2.062,2.062,0,0,1-.361.033A1.883,1.883,0,0,1,0,10.275"
       transform="translate(121.075 55.804)"
       fill="#002e50"
       id="path6690"
       style="fill:#000000;fill-opacity:1" />
  </g>
</svg>
