<?xml version="1.0" encoding="UTF-8" standalone="no"?>
<!-- Created with Inkscape (http://www.inkscape.org/) -->

<svg
   version="1.1"
   id="svg2"
   width="240"
   height="28.472967"
   viewBox="0 0 240 28.472967"
   sodipodi:docname="huffpost.svg"
   inkscape:version="1.2 (dc2aeda, 2022-05-15)"
   xmlns:inkscape="http://www.inkscape.org/namespaces/inkscape"
   xmlns:sodipodi="http://sodipodi.sourceforge.net/DTD/sodipodi-0.dtd"
   xmlns="http://www.w3.org/2000/svg"
   xmlns:svg="http://www.w3.org/2000/svg">
  <sodipodi:namedview
     id="namedview567"
     pagecolor="#ffffff"
     bordercolor="#000000"
     borderopacity="0.25"
     inkscape:showpageshadow="2"
     inkscape:pageopacity="0.0"
     inkscape:pagecheckerboard="0"
     inkscape:deskcolor="#d1d1d1"
     showgrid="false"
     inkscape:zoom="3.2916667"
     inkscape:cx="120.1519"
     inkscape:cy="14.43038"
     inkscape:window-width="1440"
     inkscape:window-height="847"
     inkscape:window-x="0"
     inkscape:window-y="25"
     inkscape:window-maximized="1"
     inkscape:current-layer="svg2" />
  <defs
     id="defs6" />
  <g
     id="g8"
     transform="matrix(1.3333333,0,0,-1.3333333,0,1056)"
     style="fill-opacity:1;fill:#f2f2f2">
    <g
       id="g10"
       transform="matrix(0.1,0,0,0.1,-216,385.32229)"
       style="fill-opacity:1;fill:#f2f2f2">
      <path
         d="m 2306.13,4062.07 h 65.65 l -12.31,-71.99 h 57.05 l 12.31,71.99 h 65.65 l -35,-204.65 h -65.65 l 13.01,76.06 h -57.05 l -13.01,-76.06 h -65.65 l 35,204.65"
         style="fill:#f2f2f2;fill-opacity:1;fill-rule:evenodd"
         id="path12" />
      <path
         d="m 2531.42,4062.07 h 65.65 l -19.62,-117.86 c -3.55,-23.84 1.77,-37.88 21.03,-37.88 18.59,0 29.58,12.69 33.86,37.74 l 20.14,117.73 h 65.65 l -22.54,-131.77 c -10.5,-61.41 -47.59,-76.8 -99.45,-76.8 -85.06,0 -91.77,50.67 -85.48,86.92 l 20.76,121.92"
         style="fill:#f2f2f2;fill-opacity:1;fill-rule:evenodd"
         id="path14" />
      <path
         d="m 3882.6,4062.07 h 77.4 v -204.65 h -112.4 l 35,204.65"
         style="fill:#f2f2f2;fill-opacity:1;fill-rule:evenodd"
         id="path16" />
      <path
         d="m 2755.27,4062.07 h 143.99 l -9.68,-56.6 h -78.34 l -5.97,-34.91 h 56.85 l -8.94,-52.29 h -56.85 l -10.41,-60.85 h -65.65 l 35,204.65"
         style="fill:#f2f2f2;fill-opacity:1;fill-rule:evenodd"
         id="path18" />
      <path
         d="m 2927.32,4062.07 h 143.99 l -9.68,-56.6 h -78.34 l -5.97,-34.91 h 56.85 l -8.94,-52.29 h -56.85 l -10.41,-60.85 h -65.65 l 35,204.65"
         style="fill:#f2f2f2;fill-opacity:1;fill-rule:evenodd"
         id="path20" />
      <path
         d="m 3796.45,4005.47 -25.32,-148.05 h -65.65 l 25.32,148.05 h -53.15 l 9.67,56.6 h 169.98 l -9.68,-56.6 h -51.17"
         style="fill:#f2f2f2;fill-opacity:1;fill-rule:evenodd"
         id="path22" />
      <path
         d="m 3099.37,4062.07 c 30.5,0 60.8,0.09 91.3,0.09 29.8,0 52.23,-13.14 62.83,-33.09 12.47,-23.46 6.65,-66.82 -8.71,-87.98 -13.34,-18.36 -35.41,-30.46 -61.49,-30.46 h -43.08 l -9.1,-53.21 h -66.75 z m 57.5,-54.09 -7.89,-46.1 h 19.66 c 22.2,0 25.44,14.27 27.12,21.57 2.18,12.68 -5.72,24.53 -21.96,24.53 h -16.93"
         style="fill:#f2f2f2;fill-opacity:1;fill-rule:evenodd"
         id="path24" />
      <path
         d="m 2160,4062.07 h 112.45 l -35,-204.65 H 2160 v 204.65"
         style="fill:#f2f2f2;fill-opacity:1;fill-rule:evenodd"
         id="path26" />
      <path
         d="m 3383.63,4011.99 c 23.14,0 27.76,-22.78 23.15,-52.2 -4.84,-30.85 -16.51,-52.64 -38.45,-52.64 -23.48,0 -30.26,23.16 -25.65,52.6 5.31,31.52 17.29,52.24 40.95,52.24 z m 4.23,54.27 c 69.86,0 97.07,-49 89.98,-107.83 -7.1,-58.83 -40.94,-105.2 -115.68,-105.2 -67.78,0 -97.2,48.38 -90.1,107.21 7.1,58.83 38.96,105.82 115.8,105.82"
         style="fill:#f2f2f2;fill-opacity:1;fill-rule:evenodd"
         id="path28" />
      <path
         d="m 3533.49,4052.71 c 16.87,9.93 38.17,14.27 57.67,14.06 32.84,-0.37 65.87,-12.77 71.92,-45.31 l -58.65,-15.57 c -3.26,7.82 -11.55,12.54 -19.89,12.62 -13.42,0.13 -21.03,-11.75 -13.4,-19.96 7.55,-7.12 27.57,-12.07 36.63,-15.6 9.53,-3.72 18.07,-8.44 25.52,-15.59 12.39,-11.89 17.85,-28.39 17.34,-44.93 -1.57,-50.42 -45.83,-69.1 -90.48,-69.07 -38.92,0.03 -77.06,15.75 -80.55,49.06 l 57.23,15.37 c 7.05,-10.07 13.4,-15.91 26.73,-15.91 7.51,0 13.71,3.39 15.68,9.2 2.07,6.08 -0.53,13.98 -12.62,17.95 -10.92,3.58 -26.64,7.38 -39.38,15.82 -19.3,13.02 -26.88,36.93 -24.25,59.17 2.35,19.89 12.88,38.32 30.5,48.69"
         style="fill:#f2f2f2;fill-opacity:1;fill-rule:evenodd"
         id="path30" />
    </g>
  </g>
</svg>
