<?xml version="1.0" encoding="UTF-8" standalone="no"?>
<!-- Created with Inkscape (http://www.inkscape.org/) -->

<svg
   version="1.1"
   id="svg2"
   width="258.66666"
   height="258.66666"
   viewBox="0 0 258.66666 258.66666"
   sodipodi:docname="Wall_Street_Journal.eps"
   xmlns:inkscape="http://www.inkscape.org/namespaces/inkscape"
   xmlns:sodipodi="http://sodipodi.sourceforge.net/DTD/sodipodi-0.dtd"
   xmlns="http://www.w3.org/2000/svg"
   xmlns:svg="http://www.w3.org/2000/svg">
  <defs
     id="defs6" />
  <sodipodi:namedview
     id="namedview4"
     pagecolor="#ffffff"
     bordercolor="#000000"
     borderopacity="0.25"
     inkscape:showpageshadow="2"
     inkscape:pageopacity="0.0"
     inkscape:pagecheckerboard="0"
     inkscape:deskcolor="#d1d1d1" />
  <g
     id="g8"
     inkscape:groupmode="layer"
     inkscape:label="ink_ext_XXXXXX"
     transform="matrix(1.3333333,0,0,-1.3333333,0,258.66667)">
    <g
       id="g10"
       transform="scale(0.1)">
      <path
         d="M 2.59766,1933.23 H 1930.16 V 5.66797 H 2.59766 V 1933.23"
         style="fill:#ffffff;fill-opacity:1;fill-rule:evenodd;stroke:none"
         id="path12" />
      <path
         d="m 376.309,1058.93 c 1.851,-0.61 3.086,-1.23 2.468,-3.7 -0.617,-4.32 -7.406,-2.47 -11.109,-3.7 -9.258,-3.09 -6.168,-15.43 -7.406,-24.07 v -35.796 c 0,-16.047 0,-35.18 0,-51.226 v -35.176 c 0,-4.934 -0.614,-10.492 3.09,-12.344 2.468,-3.699 9.871,-1.23 14.808,-1.848 7.406,1.231 10.492,9.258 15.43,12.957 1.851,6.789 4.937,12.344 6.172,19.133 3.699,12.34 1.851,28.387 6.172,40.731 2.468,0.617 3.086,-1.235 3.703,-3.086 v -68.504 c 1.234,-1.852 -0.617,-4.934 -0.617,-6.789 l -5.559,-1.231 h -62.328 c -0.617,0 -4.938,0 -6.172,0 -2.469,0.617 -6.172,0 -7.406,2.469 0.617,6.789 11.726,3.699 11.726,11.723 v 87.019 c -0.617,11.106 0,25.308 0,35.798 0,10.49 3.086,24.68 -4.32,30.24 -3.086,3.08 -12.961,-1.85 -11.727,4.93 0.618,1.24 1.235,1.86 3.086,2.47 h 49.989"
         style="fill:#231f20;fill-opacity:1;fill-rule:evenodd;stroke:none"
         id="path14" />
      <path
         d="m 624.402,1049.68 c 2.469,-1.86 5.555,0 6.789,0.61 2.469,2.47 0,8.64 4.938,8.03 l 3.086,-0.62 v -64.802 c -1.235,-0.617 0,-4.32 -1.852,-4.32 h -3.703 c -1.234,23.452 -3.086,47.522 -20.367,58.632 -3.086,1.85 -6.789,3.08 -10.488,3.08 -7.407,-0.61 -11.727,-6.17 -14.817,-11.72 -4.32,-6.79 -3.082,-19.75 0.621,-25.93 9.258,-12.952 24.067,-20.359 35.176,-30.851 11.11,-11.726 24.07,-24.07 24.684,-43.82 1.855,-21.598 -5.551,-39.496 -19.746,-51.219 -8.024,-5.559 -20.368,-6.172 -29.625,-2.469 l -12.957,8.637 c -3.086,1.234 -3.703,-1.848 -4.942,-3.086 0,-3.703 -0.613,-6.172 -3.082,-7.402 l -4.32,1.23 -0.617,35.797 v 40.113 c 1.234,0.618 4.32,0.618 5.554,0 1.235,-25.3 1.852,-51.84 20.364,-64.8 5.558,-3.7 12.347,-6.79 20.367,-4.321 11.726,4.938 16.047,17.899 16.047,32.094 -1.235,12.344 -6.172,21.598 -14.813,28.387 -11.722,14.195 -29.004,21.601 -40.113,37.031 -3.086,3.703 -3.086,8.637 -5.555,12.959 -6.172,20.37 1.848,40.73 13.578,53.08 5.551,3.7 14.196,6.17 21.598,4.32 5.559,-1.86 10.492,-4.94 14.195,-8.64"
         style="fill:#231f20;fill-opacity:1;fill-rule:evenodd;stroke:none"
         id="path16" />
      <path
         d="m 136.242,1058.32 c 1.231,-0.62 3.082,-0.62 3.699,-3.09 -1.847,-4.32 -7.406,-4.32 -9.257,-8.02 -1.852,-3.71 -1.852,-10.5 -0.618,-14.82 l 7.407,-43.812 c 3.09,-14.195 6.172,-29.008 9.875,-43.199 0,0 1.234,0 1.851,0 4.938,20.98 8.641,41.965 12.344,62.951 -3.703,16.04 -0.617,37.64 -15.43,45.05 -1.234,3.08 0.617,4.94 3.703,4.94 8.641,-0.62 36.411,0 43.2,-0.62 0.617,-1.24 0.617,-3.7 0,-4.94 -4.934,-1.85 -10.493,-1.23 -13.575,-5.55 -6.789,-11.11 2.465,-22.84 1.852,-35.8 l 7.402,-38.879 c 1.856,-8.64 1.856,-19.133 6.789,-25.922 h 0.618 l 9.257,40.118 c 4.938,16.663 7.407,34.563 11.11,51.843 1.234,5.55 -0.617,9.25 -4.321,11.72 -2.468,2.47 -6.789,1.85 -10.492,2.47 -0.617,1.24 -0.617,3.7 0,4.94 9.258,0 37.649,0.62 41.348,0 1.851,-0.62 1.238,-3.7 0.617,-4.94 -5.551,-1.23 -11.105,-2.47 -14.191,-6.17 -3.703,-9.88 -5.555,-20.37 -8.024,-30.24 l -10.492,-48.139 c -6.172,-26.535 -12.961,-53.691 -19.133,-80.844 -1.23,-1.855 -4.316,-1.855 -5.554,-0.617 -3.704,4.938 -3.704,12.957 -5.555,19.746 l -9.258,53.074 -4.934,22.219 h -1.234 l -7.406,-36.41 c -3.703,-17.899 -7.406,-35.797 -11.11,-54.309 -0.617,-3.703 -3.085,-6.172 -8.023,-4.941 -4.32,1.238 -2.465,6.789 -3.703,10.492 l -3.082,19.75 -9.258,48.754 -6.172,35.175 c -1.855,14.2 -5.554,28.39 -8.64,41.97 -0.618,3.7 -4.321,6.17 -6.789,8.64 -4.3208,1.23 -8.0239,-0.62 -12.3442,1.85 -1.2344,1.24 -1.8516,4.94 0.6171,5.56 h 46.9061"
         style="fill:#231f20;fill-opacity:1;fill-rule:evenodd;stroke:none"
         id="path18" />
      <path
         d="m 276.949,1054 c 2.469,-16.67 7.406,-31.48 9.875,-48.76 l 12.957,-63.564 c 3.09,-14.196 4.321,-28.391 8.024,-41.348 1.855,-5.558 5.554,-9.258 11.726,-9.879 0,-1.851 1.852,-3.082 0.617,-4.32 l -1.851,-1.848 h -36.41 c -1.235,1.848 -7.407,0 -9.875,1.848 -1.852,9.258 11.726,1.851 12.961,8.641 3.086,3.085 1.851,9.257 1.23,12.96 -3.082,6.172 -0.613,16.665 -6.785,20.985 H 254.73 l -2.468,-1.235 c -0.617,-11.109 -8.641,-23.453 -1.852,-34.562 2.469,-1.848 7.41,-1.23 9.258,-3.086 l -0.617,-3.703 -35.176,-0.617 c -3.703,-1.231 -3.086,4.32 -1.852,5.558 7.407,-0.621 11.727,3.082 15.43,6.785 4.32,9.875 4.32,22.219 7.402,33.325 l 6.79,43.203 6.175,35.797 c 3.082,14.81 4.934,30.24 8.02,45.67 0.617,3.08 12.344,4.94 11.109,-1.85"
         style="fill:#231f20;fill-opacity:1;fill-rule:evenodd;stroke:none"
         id="path20" />
      <path
         d="m 471.969,1058.32 c 0.617,-1.24 1.851,-3.71 0.617,-4.94 -5.555,-2.47 -14.813,0 -16.047,-6.79 -1.234,-19.13 -1.234,-33.32 -1.234,-52.461 l -0.617,-75.289 h -0.618 c 3.703,-9.258 -4.937,-27.77 8.641,-28.391 3.086,-0.617 9.258,-0.617 12.34,1.239 12.347,9.871 16.047,26.535 18.515,43.199 1.852,8.64 0.622,19.129 3.086,27.769 1.235,0.621 3.703,0.621 4.938,0 v -75.289 l -0.617,-3.086 c -9.875,0 -20.364,0 -27.774,-0.621 l -35.176,0.621 h -19.132 c -3.082,0 -1.852,4.317 -1.231,6.168 6.168,0.621 13.578,0 16.66,4.938 2.469,9.258 0.618,21.601 1.852,31.472 -1.234,8.641 0.617,17.899 -0.617,27.778 l 0.617,8.019 v 78.994 c -0.617,3.09 -2.469,6.79 -4.32,8.64 -3.704,4.32 -18.512,-1.85 -12.961,8.03 h 53.078"
         style="fill:#231f20;fill-opacity:1;fill-rule:evenodd;stroke:none"
         id="path22" />
      <path
         d="m 733.023,1057.7 1.231,-3.09 v -70.969 c -0.617,-1.852 -1.852,-2.469 -3.086,-3.086 l -3.086,1.234 c 0.617,22.221 -2.469,41.961 -8.637,59.861 -1.238,3.71 -4.32,6.79 -8.027,8.64 -3.082,0 -6.172,0 -7.402,-2.47 v -69.117 -62.332 h -0.618 c 0.618,-9.258 -1.234,-20.984 5.555,-25.301 4.32,-3.09 11.723,1.848 12.34,-4.941 0,-4.938 -6.789,-1.231 -9.875,-3.082 -3.082,0 -10.488,0 -13.574,0 v 0.613 c -4.321,-1.851 -8.641,1.238 -12.344,-0.613 -3.703,0.613 -11.727,0.613 -17.281,0.613 -1.852,0.621 -1.235,4.32 -0.614,5.559 6.786,1.23 14.192,1.851 16.661,9.254 v 148.117 c -1.235,3.09 -3.086,3.7 -5.555,4.32 -9.258,-2.47 -11.727,-12.34 -14.195,-21.6 -3.086,-13.58 -5.551,-27.15 -4.321,-43.818 -1.23,-1.851 0,-4.937 -3.086,-4.937 l -3.703,1.234 v 74.671 c 8.024,2.47 60.481,1.86 79.617,1.24"
         style="fill:#231f20;fill-opacity:1;fill-rule:evenodd;stroke:none"
         id="path24" />
      <path
         d="m 806.461,1057.7 c 10.492,-3.09 19.133,-9.88 24.07,-19.13 4.321,-13.58 6.785,-35.8 -1.855,-47.523 -4.321,-6.172 -9.254,-11.727 -16.043,-16.047 -1.235,-4.32 3.082,-4.32 5.555,-8.023 8.636,-6.172 9.875,-20.368 9.875,-31.477 0,1.238 -1.239,2.469 -1.852,1.238 -0.617,-1.851 0.613,-3.086 2.465,-3.086 0.617,-10.492 -1.231,-22.218 1.238,-31.476 0.617,-1.848 1.852,-3.086 3.699,-3.703 3.09,0.617 3.703,3.703 4.938,5.554 -0.617,5.555 0.621,11.727 1.234,17.282 1.852,-1.235 3.707,2.468 4.938,0 1.234,-14.196 0.617,-29.008 -8.641,-35.797 -3.699,-2.465 -7.406,-3.703 -12.957,-3.082 -6.172,1.851 -10.492,5.55 -13.578,10.488 l -1.852,11.727 v 44.433 c -1.851,8.641 -3.703,17.899 -12.343,20.367 -3.704,1.235 -9.875,2.469 -12.961,0 l -1.235,-2.468 v -68.504 c 1.235,-3.703 2.469,-6.785 5.555,-8.024 3.086,-0.617 7.406,0 6.789,-4.937 l -1.234,-1.852 -32.09,-0.613 c -1.235,0 -3.09,1.234 -3.703,0 -3.086,2.465 -13.578,-3.086 -11.11,4.32 0,4.321 5.555,1.231 8.024,3.082 3.086,0.621 4.937,3.703 6.789,5.559 0,3.082 1.851,6.785 0.617,9.871 l 0.613,35.797 c 0,14.808 -0.613,29.004 0,41.965 0,9.257 0,22.219 -0.613,32.089 0.613,6.17 0,15.43 0.613,21.6 -1.23,5.56 -2.465,11.11 -7.402,12.96 -3.086,1.24 -8.641,-0.61 -9.875,2.47 -0.617,2.47 0,4.32 2.469,4.94 h 59.863"
         style="fill:#231f20;fill-opacity:1;fill-rule:evenodd;stroke:none"
         id="path26" />
      <path
         d="m 936.68,1057.7 c 4.32,-1.85 1.851,-10.49 2.468,-14.81 1.852,-9.88 -1.234,-20.99 0.614,-29.62 -1.848,-3.71 0.621,-6.18 0,-9.88 -1.231,-4.324 0,-10.492 -1.231,-14.195 -8.64,-0.617 -4.32,10.493 -5.554,16.045 -1.852,19.13 -8.641,36.41 -24.688,44.44 -5.555,1.85 -14.809,1.85 -18.516,-2.47 -3.699,-11.11 -1.851,-29.62 -1.851,-40.12 -1.231,-3.7 0.621,-4.93 0,-9.254 0,-5.555 0,-11.727 0,-17.281 0.621,-1.852 -0.617,-6.789 3.703,-6.172 14.816,6.789 16.664,24.066 16.664,41.347 0,2.47 1.234,3.7 4.938,3.09 l 0.617,-3.7 c -1.235,-8.03 1.234,-17.901 -0.617,-26.542 0,-8.64 0,-20.367 0.617,-29.621 -0.617,-11.109 -0.617,-20.988 0,-32.098 0,-2.464 -1.235,-3.699 -3.703,-3.699 -4.321,3.699 -1.235,14.195 -3.086,19.75 -2.469,10.488 -4.934,22.832 -16.66,25.301 l -1.852,-1.234 c -1.238,-13.579 -0.621,-23.45 -0.621,-35.797 0,-11.106 0.621,-25.301 0,-36.41 3.703,-7.403 12.961,-4.321 21.601,-4.321 15.43,6.789 20.981,25.305 24.071,42.586 L 941,931.18 v -45.668 l -1.852,-1.852 -71.589,-0.613 c -4.938,1.234 -13.579,-0.617 -18.516,1.234 -1.852,9.871 9.875,3.086 13.578,6.789 2.469,1.231 3.703,3.7 4.938,6.168 v 145.652 c -1.235,3.08 -3.086,6.17 -5.555,7.4 -4.32,1.85 -13.578,-1.85 -12.961,5.56 l 1.234,1.85 h 86.403"
         style="fill:#231f20;fill-opacity:1;fill-rule:evenodd;stroke:none"
         id="path28" />
      <path
         d="m 1026.16,1057.7 c 3.09,-1.85 11.73,1.23 13.58,-2.47 0,-22.84 0.62,-42.59 0,-64.8 -0.61,-1.852 -3.7,-1.852 -4.94,-0.621 -2.46,24.071 -1.85,52.461 -24.06,61.101 -4.94,1.85 -10.5,-0.62 -15.431,-0.62 -3.086,-3.08 -5.555,-5.55 -5.555,-10.49 v -59.862 c 0.617,-1.852 1.234,-3.086 3.086,-3.086 16.66,4.32 15.43,24.688 17.9,41.348 0.61,1.23 3.7,1.23 4.93,0 0,-8.02 0,-19.134 0,-25.302 1.24,-1.234 0,-1.234 0,-3.703 1.24,-5.554 0,-9.875 0.62,-16.664 0,-4.32 0,-11.109 0,-16.664 -1.85,-9.258 0.62,-20.98 -1.85,-29.621 -1.24,-1.234 -3.7,-0.617 -4.32,1.234 -1.24,14.196 -1.24,32.708 -12.347,41.348 -1.23,1.235 -4.933,1.235 -6.785,0 l -1.234,-4.32 v -40.113 h 0.617 c 0.617,-9.875 -3.703,-25.922 3.703,-32.094 4.938,-2.469 11.726,-3.082 17.896,-1.852 13.58,4.321 17.28,18.516 22.22,30.86 -1.24,4.937 1.85,9.871 1.85,15.429 l 1.23,19.746 c 1.24,1.235 2.47,1.852 4.32,0.618 l 1.24,-1.235 c -1.85,-9.258 3.7,-24.066 -4.94,-27.769 -0.62,-2.469 -3.7,-2.469 -3.7,-5.555 2.47,2.469 5.55,4.937 8.02,8.637 h 1.24 l -0.62,-35.793 c -1.24,-4.317 1.85,-11.106 -3.09,-12.34 -10.49,-1.238 -20.36,-0.617 -30.86,-0.617 -19.747,1.23 -38.259,0.617 -57.388,0.617 -1.851,0.613 -1.851,4.32 -0.621,5.551 5.559,1.851 12.961,0.621 16.664,6.172 5.555,4.32 2.469,16.664 3.086,24.687 0.617,13.578 -1.234,31.473 0,43.82 l -0.617,35.172 v 43.821 c -1.852,4.94 -5.555,9.26 -11.723,9.26 -3.707,0 -8.027,-0.62 -6.789,4.32 0.617,2.47 64.798,1.85 74.668,1.85"
         style="fill:#231f20;fill-opacity:1;fill-rule:evenodd;stroke:none"
         id="path30" />
      <path
         d="m 1340.29,1039.8 c 8.03,-11.11 10.5,-27.16 14.2,-42.581 4.31,-32.094 1.23,-69.121 -11.11,-92.574 -4.94,-9.258 -11.73,-16.047 -19.75,-20.985 -7.41,-1.851 -18.51,-2.469 -23.45,2.469 -23.45,21.601 -29.01,55.547 -28.39,95.043 1.23,26.538 9.26,51.838 24.69,69.738 6.16,6.79 17.9,8.64 27.77,5.55 6.17,-4.32 12.34,-9.87 16.04,-16.66"
         style="fill:#231f20;fill-opacity:1;fill-rule:evenodd;stroke:none"
         id="path32" />
      <path
         d="m 1134.17,1055.85 1.23,-1.85 0.62,-47.52 c -1.85,-8.031 0,-17.902 -1.24,-25.925 -1.85,-1.852 -3.7,0 -4.93,0.617 l -1.86,30.238 c -2.46,14.2 -4.93,27.16 -12.96,37.03 -1.85,1.85 -6.17,1.85 -7.4,0 l -2.47,-2.47 v -43.81 -0.62 -35.181 -70.351 c 1.23,-8.641 13.58,-3.707 18.51,-7.41 0.62,-3.086 -0.61,-4.938 -3.08,-5.551 -16.05,-1.856 -32.09,1.234 -48.14,0 -3.7,-0.617 -3.7,3.703 -2.47,5.551 5.56,1.234 12.35,0.621 14.2,6.172 l 0.61,69.121 v 81.469 c -1.23,1.85 -2.46,3.7 -4.93,4.32 -11.11,-1.24 -11.73,-12.35 -14.82,-20.37 l -4.93,-33.326 c -1.24,-5.554 1.23,-12.961 -1.85,-16.046 l -3.71,0.617 -0.61,34.565 c 0,12.34 -0.62,27.77 0.61,40.11 4.32,3.09 69.12,1.23 79.62,0.62"
         style="fill:#231f20;fill-opacity:1;fill-rule:evenodd;stroke:none"
         id="path34" />
      <path
         d="m 1267.47,1056.46 c 3.08,0.62 3.7,-2.46 2.47,-4.32 -6.17,-1.23 -12.35,-1.23 -16.05,-5.55 -4.32,-9.88 0.62,-22.84 -1.23,-33.32 0.62,-1.86 -0.62,-5.56 0,-8.64 0.62,-8.032 0,-17.286 0,-24.692 0,-2.469 0,-6.79 0,-10.493 v -58.629 c -3.7,-12.343 -9.26,-24.687 -21.6,-27.769 -12.35,-3.086 -20.37,2.465 -25.92,8.641 -6.79,9.871 -14.2,22.832 -8.64,37.644 2.46,5.555 6.79,8.637 12.96,9.258 3.08,-1.235 6.79,-2.469 8.02,-5.555 -0.62,-5.555 3.09,-11.726 -0.62,-15.43 -0.61,-4.937 -7.4,-4.937 -7.4,-10.492 0.61,-7.406 3.7,-13.574 9.87,-16.043 5.56,-1.238 8.64,1.231 11.73,4.317 4.32,12.343 1.85,32.093 1.85,45.672 l 0.62,35.793 v 63.568 c -1.24,3.7 -2.47,6.79 -5.56,9.87 -3.7,3.09 -12.34,-1.23 -14.19,3.71 l 1.85,3.7 c 19.13,0 32.71,-1.85 51.84,-1.24"
         style="fill:#231f20;fill-opacity:1;fill-rule:evenodd;stroke:none"
         id="path36" />
      <path
         d="m 1402.63,1055.85 c 2.46,1.23 7.4,1.85 9.25,-1.24 0.62,-3.7 -1.85,-4.32 -4.32,-4.93 -3.7,0 -6.17,-1.86 -8.64,-3.71 -2.47,-4.32 -2.47,-10.49 -2.47,-16.66 v -70.353 l -0.61,-0.621 c 1.23,-18.516 0,-30.856 1.23,-49.988 1.85,-7.407 6.17,-14.196 12.96,-17.899 5.56,-1.23 12.96,-0.617 16.66,3.703 6.17,4.321 7.41,11.11 8.64,17.899 v 61.715 l -0.62,3.703 0.62,54.311 c 0.62,5.55 -0.62,11.72 -3.7,16.04 -3.09,2.47 -8.64,2.47 -12.34,3.09 l 0.62,4.32 32.7,0.62 c 1.85,0 3.09,-1.85 3.09,-3.09 0,-3.08 -4.94,-1.23 -6.17,-2.47 -3.09,-0.61 -6.17,-3.08 -6.17,-6.17 l -1.86,-9.87 V 910.816 c -1.23,-10.488 -7.4,-19.128 -14.81,-25.304 -4.94,-4.321 -14.81,-2.465 -20.36,-3.703 -12.35,2.472 -22.84,11.109 -26.54,22.836 -7.41,15.429 -2.47,40.734 -4.32,57.394 v 79.611 c -1.24,3.71 -3.09,6.17 -6.17,8.03 -3.09,1.23 -8.64,0 -8.64,3.7 -0.62,3.7 3.7,1.85 5.55,3.08 l 36.42,-0.61"
         style="fill:#231f20;fill-opacity:1;fill-rule:evenodd;stroke:none"
         id="path38" />
      <path
         d="m 1501.98,1055.23 c 18.52,2.47 37.03,-1.23 44.44,-16.05 6.17,-9.87 9.87,-25.3 5.55,-38.88 -5.55,-9.87 -9.87,-22.214 -20.98,-27.152 0,-5.554 6.17,-6.789 8.64,-11.109 2.47,-4.937 4.94,-9.258 4.94,-16.043 l 1.23,-31.476 c 0,-5.555 -0.62,-14.813 4.94,-17.282 7.4,2.469 5.55,13.578 6.79,21.602 0.61,0.617 3.08,0.617 3.7,0 1.85,-13.578 -1.23,-26.539 -9.26,-34.559 -4.32,-1.851 -9.87,-4.32 -14.81,-2.472 -5.55,0 -5.55,6.171 -9.25,9.261 l -1.86,17.895 v 35.793 c -0.62,8.023 -1.23,17.281 -7.41,21.601 -4.31,3.704 -12.34,4.938 -18.51,2.469 l -1.23,-1.851 c -2.47,-24.067 0.62,-43.817 0,-69.122 0.62,-3.703 1.23,-8.023 5.55,-9.875 3.71,-0.613 5.56,0 9.88,-1.23 0.62,-1.238 0,-3.09 0.62,-4.941 l -32.72,-0.618 -17.89,1.239 c -1.23,1.23 -1.23,4.32 0,4.937 5.55,0 9.87,1.852 12.96,4.934 l 1.85,6.172 v 141.947 c -1.24,3.7 -1.85,7.4 -5.56,9.26 -3.08,1.23 -8.63,-0.62 -8.63,3.7 1.84,4.32 5.55,0.62 9.87,2.47 9.26,-0.62 16.66,-0.62 27.15,-0.62"
         style="fill:#231f20;fill-opacity:1;fill-rule:evenodd;stroke:none"
         id="path40" />
      <path
         d="m 1592.7,1055.85 c 1.24,-1.24 3.71,-1.85 4.32,-3.71 12.35,-34.55 21.61,-70.351 35.8,-103.679 3.7,0.617 -1.23,4.32 1.23,6.176 -0.61,12.957 0.62,25.301 -0.61,38.879 1.23,7.404 0,12.964 0.61,20.984 -1.85,1.23 1.24,3.09 -0.61,3.7 1.23,7.41 -0.62,17.9 -0.62,26.54 -3.09,4.32 -8.64,5.55 -14.81,5.55 0,0.62 -1.24,4.32 1.23,4.94 11.73,0 22.84,0 35.8,0 2.46,-0.62 1.23,-3.09 1.23,-4.94 -3.7,-1.85 -9.26,-1.23 -11.73,-4.93 l -2.46,-6.18 -0.62,-33.32 v -92.575 c 0,-3.086 0,-9.875 0,-12.957 -0.62,-4.941 0.62,-12.961 -0.62,-17.898 -1.23,-1.239 -4.32,-1.852 -5.55,-0.621 -4.32,5.558 -3.7,14.812 -8.02,20.367 -6.79,16.664 -10.5,35.793 -17.29,51.84 l -12.34,35.179 c -1.85,6.172 -4.94,11.105 -6.79,16.665 l -1.23,-0.62 c -1.85,-7.404 -1.85,-13.576 -0.62,-20.982 l -0.62,-33.328 v -54.922 c 1.24,-3.09 2.47,-6.176 5.56,-8.028 3.08,-1.851 10.49,1.852 10.49,-3.699 l -0.62,-2.472 -34.56,-0.618 c -2.46,0.618 -5.55,0.618 -5.55,3.707 2.47,4.934 12.96,0 15.43,6.172 2.46,4.938 2.46,11.723 2.46,18.512 l -0.61,70.973 v 59.245 c -1.23,8.64 -9.87,9.26 -16.66,11.11 -1.86,1.23 0,3.09 0,4.32 9.25,1.23 18.51,0.62 28.38,0.62"
         style="fill:#231f20;fill-opacity:1;fill-rule:evenodd;stroke:none"
         id="path42" />
      <path
         d="m 1713.05,1024.37 c 2.47,-17.28 8.02,-32.706 9.87,-50.604 l 11.11,-51.223 c 3.7,-12.344 3.09,-28.391 14.81,-34.563 3.09,-0.613 6.79,-0.613 4.94,-5.55 l -0.62,-1.239 c -14.19,-0.613 -33.32,-1.23 -48.13,0.618 -3.09,8.64 7.4,4.941 11.1,7.41 3.09,2.469 3.71,7.402 3.09,12.957 -1.85,8.64 -3.09,17.898 -6.79,24.683 -9.87,0.621 -21.6,0.621 -30.24,-0.613 -2.47,-3.086 -3.08,-8.023 -3.7,-12.961 -1.24,-7.406 -6.17,-18.515 1.23,-24.687 3.09,-3.086 15.43,2.472 11.11,-6.789 -9.87,-1.848 -21.6,-1.231 -31.47,-1.231 -3.09,1.231 -9.88,-1.238 -8.03,4.934 0,3.707 6.17,1.238 8.03,2.468 5.55,3.09 8.02,8.641 9.25,14.196 l 7.41,41.965 9.26,53.078 5.55,30.851 c 1.85,9.26 3.09,19.75 7.41,27.16 l 8.02,-0.62 6.79,-30.24"
         style="fill:#231f20;fill-opacity:1;fill-rule:evenodd;stroke:none"
         id="path44" />
      <path
         d="m 1806.86,1055.23 c 2.46,-0.62 4.93,-1.23 4.93,-4.32 -1.23,-4.32 -9.25,-1.85 -12.34,-4.32 -4.32,-1.85 -4.32,-7.41 -5.56,-11.11 V 897.855 c -1.85,-4.316 1.24,-7.406 3.71,-9.875 4.94,-3.082 16.04,-2.468 22.22,-0.613 9.87,6.172 11.72,18.512 16.04,29.621 l 4.32,32.09 c 0.62,1.238 3.09,1.238 4.94,0 v -57.39 h -0.62 c 0,-3.09 0.62,-8.028 -0.61,-11.11 -3.09,-1.238 -8.03,0 -10.5,-0.617 l -1.85,0.617 -33.33,-0.617 c -12.95,0.617 -27.15,-1.234 -37.64,1.848 -1.23,0.621 -1.23,3.089 -0.62,4.32 3.71,2.469 11.73,-0.617 13.58,4.941 l 0.62,6.168 v 145.652 c -3.09,6.17 -9.88,6.79 -16.05,6.79 0,2.46 -1.23,4.93 1.24,5.55 h 47.52"
         style="fill:#231f20;fill-opacity:1;fill-rule:evenodd;stroke:none"
         id="path46" />
      <path
         d="m 1329.18,1039.18 1.24,-11.72 v -38.882 l 0.62,-0.617 -0.62,-80.231 c -1.24,-6.171 -4.32,-10.492 -7.41,-15.429 -4.31,-3.703 -11.72,-3.082 -16.05,-0.613 -9.25,6.167 -11.1,17.894 -10.48,28.386 -0.62,8.641 2.47,16.047 0,24.067 0.61,9.257 0,19.75 1.23,29.625 -1.23,0.617 0,4.32 -1.23,4.937 2.47,3.086 -0.62,4.938 0,8.024 0.61,15.433 0,27.153 0,45.053 2.47,8.02 6.16,17.28 14.81,19.13 9.25,0.62 14.19,-4.94 17.89,-11.73"
         style="fill:#ffffff;fill-opacity:1;fill-rule:evenodd;stroke:none"
         id="path48" />
      <path
         d="m 801.523,1049.68 c 17.282,-10.5 10.493,-37.04 9.875,-56.782 -1.234,-5.554 -4.32,-9.875 -8.64,-13.578 -4.938,-3.086 -15.43,-2.468 -20.367,-0.617 l -0.618,62.947 c 0.618,4.32 2.469,8.64 8.024,8.64 3.703,1.24 7.406,-0.61 11.726,-0.61"
         style="fill:#ffffff;fill-opacity:1;fill-rule:evenodd;stroke:none"
         id="path50" />
      <path
         d="m 1529.14,1039.8 c 1.85,-4.32 1.85,-10.49 2.47,-14.81 l -0.62,-32.709 c -1.85,-6.172 -3.7,-11.726 -9.26,-14.195 -4.93,-1.852 -16.04,-1.852 -22.21,0 -0.62,23.454 -0.62,41.344 -0.62,64.804 0.62,3.08 3.08,6.17 6.79,7.4 11.72,2.47 17.9,-3.7 23.45,-10.49"
         style="fill:#ffffff;fill-opacity:1;fill-rule:evenodd;stroke:none"
         id="path52" />
      <path
         d="m 1697.62,1003.39 c 3.7,-23.452 11.11,-44.433 14.19,-68.503 l -1.23,-1.235 -24.69,-0.617 -3.08,1.852 c 0.62,6.789 1.85,14.191 3.7,21.597 l 4.94,32.711 c 1.23,4.934 1.85,10.493 3.7,14.815 l 2.47,-0.62"
         style="fill:#ffffff;fill-opacity:1;fill-rule:evenodd;stroke:none"
         id="path54" />
      <path
         d="m 273.246,970.68 6.172,-33.325 c -4.32,-4.937 -12.961,0 -19.75,-1.855 l -4.938,0.621 0.622,8.02 5.55,35.179 4.321,22.84 1.234,-0.62 6.789,-30.86"
         style="fill:#ffffff;fill-opacity:1;fill-rule:evenodd;stroke:none"
         id="path56" />
    </g>
  </g>
</svg>
